<svg height="18" viewBox="0 0 33 18" width="33" xmlns="http://www.w3.org/2000/svg"><g fill="none" fill-rule="evenodd"><path d="m7.15890937.5-6.52845206 8.5 6.52845206 8.5h24.36921523v-17z" fill="#fff" fill-rule="nonzero" stroke="#000"/><path d="m13.377375 13.352c-.1155006-.1120006-.17325-.2479992-.17325-.408 0-.1440007.0577494-.2719994.17325-.384l3.63825-3.528-3.63825-3.576c-.1155006-.11200056-.17325-.23999928-.17325-.384 0-.1600008.0577494-.28799952.17325-.384l.7425-.72c.1155006-.11200056.2474993-.168.396-.168s.2804994.05599944.396.168l3.63825 3.576 3.68775-3.576c.1155006-.11200056.2474993-.168.396-.168.1650008 0 .2969995.05599944.396.168l.7425.72c.1155006.09600048.17325.2239992.17325.384 0 .14400072-.0577494.27199944-.17325.384l-3.663 3.576 3.663 3.528c.1155006.1120006.17325.2399993.17325.384s-.0577494.2719994-.17325.384l-.7425.72c-.0990005.1120006-.2309992.168-.396.168-.1485007 0-.2804994-.0559994-.396-.168l-3.68775-3.528-3.63825 3.552c-.1485007.1120006-.2804994.168-.396.168s-.2474993-.0559994-.396-.168z" fill="#000"/></g></svg>