<svg height="45" viewBox="0 0 148 45" width="148" xmlns="http://www.w3.org/2000/svg"><g fill="none" fill-rule="nonzero"><path d="m21.5834806 9.33238636c-1.3663202 0-2.04947 1.17186324-2.04947 3.51562504v18.0255681c0 1.6619402.0640453 2.7059638.1921378 3.1321023.34158 1.1079601 1.0674267 1.7471583 2.1775618 1.9176137.2561851.0426138.5764116.0745737.9606891.0958806.3842775.021307.8112462.0319603 1.2809187.0319603h3.1382509c3.4584979 0 5.1877209-1.0653303 5.1877209-3.1960228 0-.6392077-.0853938-1.3210191-.2561838-2.0454545-.2134875-1.0653462-.3202297-1.8963038-.3202297-2.4928977 0-1.3636432.5123624-2.5035466 1.5371025-3.4197444 1.0247401-.9161977 2.305646-1.3742897 3.8427562-1.3742897 3.4158003 0 5.1236749 1.6832218 5.1236749 5.0497159 0 .3835246-.0213484.8522699-.0640459 1.40625-.0426975.55398-.1067428 1.1931782-.1921379 1.9176136-.085395.7244355-.1494403 1.3636336-.1921378 1.9176137-.0426975.55398-.0640459 1.0014187-.0640459 1.3423295 0 .4261385.0106742.8522706.032023 1.2784091.0213487.4261385.0533714.8522706.0960689 1.2784091.085395.852277.1494403 1.523435.1921378 2.0134943s.0640459.7776984.0640459.8629261c0 2.3437618-1.3876481 3.515625-4.1629858 3.515625-.7258576 0-1.6011433-.0213066-2.6258834-.0639204-1.0247401-.0426139-2.2202523-.1065337-3.5865725-.1917614-4.0989604-.2556831-9.9911276-.3835227-17.6766784-.3835227-1.1528326 0-2.1882316.0319599-3.1062279.0958807-.9179964.0639207-1.76125944.1491472-2.52981452.2556818s-1.48372755.191761-2.14553887.2556818-1.3129385.0958807-1.95340106.0958807c-1.32362264 0-2.40171845-.4474387-3.23431979-1.3423296-.83260134-.8948908-1.24889576-2.0241409-1.24889576-3.387784 0-1.2358017.3309007-2.2478654.99271201-3.0362216.66181132-.7883563 1.50507439-1.1825284 2.52981449-1.1825284.34158004 0 .84326819.0745731 1.50507951.2237215.66181132.1491485 1.16349947.2237216 1.5050795.2237216 1.15283262 0 1.72924029-1.4488491 1.72924029-4.3465909v-17.7059659c0-2.8551279-.57640767-4.28267044-1.72924029-4.28267044-.34158003 0-.84326818.07457312-1.5050795.22372159-.66181132.14914848-1.1848479.2237216-1.56912544.2237216-.98204261 0-1.80395724-.4048255-2.46576856-1.21448864-.66181131-.80966314-.99271201-1.81107358-.99271201-3.00426136 0-3.11081101 1.57978397-4.66619319 4.73939929-4.66619319.59776507 0 2.43373022.12783963 5.50795051.38352273 1.0247401.0852277 1.9960938.14914752 2.9140901.19176136.9179964.04261385 1.8039563.06392046 2.6579064.06392046.7258576 0 1.4303558-.02130661 2.1135159-.06392046.6831601-.04261384 1.3663099-.10653366 2.04947-.19176136 2.0494802-.2556831 3.522522-.38352273 4.4191696-.38352273 1.4090176 0 2.5298103.4154788 3.3624116 1.24644887.8326014.83097006 1.2488958 1.94956683 1.2488958 3.35582386 0 1.23580163-.3202265 2.25851868-.9606891 3.06818182-.6404625.80966314-1.4517029 1.21448864-2.4337455 1.21448864-.4696726 0-1.1421482-.07457312-2.017447-.2237216-.8752989-.14914847-1.5477745-.22372159-2.017447-.22372159z" fill="#627fe9"/><path d="m63.6456493 10.7386364c3.2877078 0 6.063004.916184 8.3259717 2.7485795.17079-1.7897817 1.3236054-2.6846591 3.4584806-2.6846591 2.1775727 0 3.2663427.7670378 3.2663427 2.3011364 0 .5113662-.0853937 1.0866445-.2561837 1.7258523-.1280925.7670492-.1921378 1.4914738-.1921378 2.1732954 0 .1278416.0213484.4687472.0640459 1.0227273v1.7258523c0 2.258534-1.1314669 3.387784-3.3944346 3.387784-1.6225052 0-3.0315017-.8096509-4.2270318-2.4289772-1.4517152-1.9602371-3.223635-2.9403409-5.3158127-2.9403409-2.4764553 0-3.7146643.8522642-3.7146643 2.5568181 0 .8948909.4056202 1.5234357 1.2168728 1.8856535.8112525.3622177 2.9460957.8416163 6.4045936 1.4382102 2.8180353.5113662 4.8995074 1.0866445 6.2444788 1.7258523 1.3449714.6392077 2.4444156 1.5553917 3.2983657 2.7485795 1.0674376 1.5340986 1.6011484 3.3238534 1.6011484 5.3693182 0 3.2386525-1.2488832 5.9445914-3.7466873 8.1178977-2.497804 2.1733063-5.6253492 3.2599432-9.3827296 3.2599432s-7.1731295-1.1931699-10.2473499-3.5795455c0 2.0880787-1.0674216 3.1321023-3.2022968 3.1321023-2.3056652 0-3.4584805-.9374906-3.4584805-2.8125 0-.4261385.0426968-1.0866432.1280918-1.9815341.085395-.8948908.1280919-1.5553956.1280919-1.9815341 0-.3835246-.0320226-.958803-.0960689-1.7258522-.0640463-.7670493-.0960689-1.3423277-.0960689-1.7258523 0-1.9176232 1.1955122-2.8764205 3.5865724-2.8764205 1.1528327 0 2.0281184.1704529 2.6258834.5113637.5977651.3409108 1.238218 1.0014155 1.9213781 1.9815341 1.0674376 1.5767124 2.0494655 2.6100827 2.9461131 3.100142s2.2202504.7350852 3.970848.7350852c3.0742204 0 4.6113075-.9587972 4.6113075-2.8764204 0-1.3210294-1.2382091-2.2372134-3.7146643-2.7485796l-3.7146644-.7670454c-3.0315228-.6392078-5.1770402-1.2784059-6.4366166-1.9176137-1.2595763-.6392077-2.2522784-1.6512714-2.978136-3.0362216-.7258576-1.3849501-1.0887809-2.9722921-1.0887809-4.7620738 0-3.1960387 1.0567474-5.7954445 3.1702738-7.7982955 2.1135265-2.0028509 4.8781484-3.0042613 8.2939488-3.0042613z" fill="#92e387"/><path d="m104.947273 0c4.09896 0 7.664148 1.49146236 10.695671 4.47443182-.042698-.12784155-.064046-.3409076-.064046-.63920455 0-2.38637557 1.280906-3.57954545 3.842756-3.57954545 1.19553 0 2.166884.37286559 2.91409 1.11860795.747207.74574237 1.120804 1.7151929 1.120804 2.90838068 0 .55398005-.064045 1.36363104-.192138 2.42897728-.213487 1.74716782-.320229 3.00425753-.320229 3.77130677 0 .5539801.074719 1.3742844.22416 2.4609375.149442 1.0866532.224161 1.9069575.224161 2.4609375 0 1.3210294-.48034 2.3863596-1.441033 3.1960228-.960694.8096631-2.209577 1.2144886-3.746688 1.2144886-3.24501 0-4.824794-1.3423161-4.739399-4.0269886l.064046-1.9815341c.042698-1.406257-.53371-2.567467-1.72924-3.4836648-1.19553-.91619775-2.711269-1.37428976-4.547262-1.37428976-5.721465 0-8.5821552 4.51700026-8.5821552 13.55113636 0 4.6875234.693824 8.1072336 2.0814932 10.259233 1.387669 2.1519994 3.597231 3.2279829 6.628754 3.2279829 1.87869 0 3.415777-.4367854 4.611308-1.3103693 1.19553-.8735839 1.771937-2.0134873 1.72924-3.4197443l-.064046-2.3011364c-.042698-1.3210293.384271-2.3863596 1.280919-3.1960227.896647-.8096632 2.049463-1.2144887 3.45848-1.2144887 1.793295 0 3.212966.596585 4.259055 1.7897728s1.569125 2.8124897 1.569125 4.8579545c0 4.0483157-1.611806 7.3614928-4.835468 9.9396307-3.223661 2.5781379-7.375931 3.8671875-12.456934 3.8671875-6.233836 0-11.1546497-1.9815143-14.7625888-5.9446023s-5.4118816-9.3749657-5.4118816-16.2357954c0-7.073899 1.6224808-12.6455763 4.8674912-16.71519889 3.2450103-4.06962262 7.6854841-6.10440341 13.3215552-6.10440341z" fill="#f69a66"/><path d="m142.53136 44.8721591c-1.622505 0-3.031501-.596585-4.227031-1.7897727-1.195531-1.1931878-1.793287-2.6207304-1.793287-4.2826705s.597756-3.0894827 1.793287-4.2826704c1.19553-1.1931878 2.604526-1.7897728 4.227031-1.7897728 1.665203 0 3.095548.596585 4.291078 1.7897728 1.19553 1.1931877 1.793286 2.6207303 1.793286 4.2826704s-.597756 3.0894827-1.793286 4.2826705c-1.19553 1.1931877-2.625875 1.7897727-4.291078 1.7897727zm4.355124-17.3863636c-.213487 2.1306924-1.216864 3.1960227-3.010159 3.1960227h-2.497791c-1.793296 0-2.796672-1.0653303-3.010159-3.1960227l-1.985424-20.58238641c-.128093-1.32102933-.192138-2.17329354-.192138-2.55681818 0-2.89774176 2.134843-4.34659091 6.404593-4.34659091 4.269751 0 6.404594 1.44884915 6.404594 4.34659091 0 .80966314-.042697 1.66192734-.128092 2.55681818z" fill="#cfcfcf"/></g></svg>